<?xml version="1.0" encoding="utf-8"?>
<!-- Generator: Adobe Illustrator 21.0.0, SVG Export Plug-In . SVG Version: 6.00 Build 0)  -->
<svg version="1.1" id="Layer_1" xmlns="http://www.w3.org/2000/svg" xmlns:xlink="http://www.w3.org/1999/xlink" x="0px" y="0px"
	 viewBox="0 0 368.5 85" style="enable-background:new 0 0 368.5 85;" xml:space="preserve">
<style type="text/css">
	.st0{fill:#333333;}
	.st1{fill:url(#SVGID_1_);}
	.st2{fill:#2188F7;}
</style>
<g>
	<path class="st0" d="M196.5,60.7h-2.9c-0.6,0-1.1-0.6-1.1-1.3V41c0-1.5-0.1-2.9-0.2-4.3c-0.1-1.4-0.4-2.5-0.8-3.3
		c-0.4-0.9-1-1.6-1.8-2c-0.8-0.5-1.9-0.7-3.4-0.7c-1.5,0-2.9,0.4-4.4,1.2c-1.3,0.7-2.6,1.6-3.8,2.7c-0.3,0.3-0.5,0.7-0.5,1.1
		c0,0.3,0,0.6,0.1,1c0,0.6,0.1,1.3,0.1,1.9v20.9c0,0.7-0.5,1.3-1.1,1.3h-2.9c-0.6,0-1.1-0.6-1.1-1.3V41c0-1.5-0.1-3-0.2-4.4
		c-0.1-1.4-0.4-2.5-0.8-3.3c-0.4-0.9-1-1.6-1.8-2c-0.8-0.4-1.9-0.7-3.4-0.7c-1.4,0-2.8,0.4-4.3,1.2c-1.3,0.7-2.5,1.6-3.8,2.6
		c-0.3,0.2-0.5,0.6-0.5,1v23.9c0,0.7-0.5,1.3-1.1,1.3h-2.9c-0.6,0-1.1-0.6-1.1-1.3V27.4c0-0.7,0.5-1.3,1.1-1.3h2.9
		c0.6,0,1.1,0.6,1.1,1.3v0c0,1,1,1.6,1.8,1c1-0.8,2-1.5,3.1-2c1.6-0.8,3.3-1.3,5.2-1.3c2.1,0,3.9,0.5,5.4,1.5c1.1,0.7,2,1.7,2.7,2.9
		c0.4,0.6,1.1,0.8,1.6,0.3c1.7-1.5,3.3-2.6,4.7-3.3c1.7-0.9,3.6-1.3,5.6-1.3c3.4,0,5.9,1.2,7.5,3.5c1.6,2.3,2.4,5.5,2.4,9.7v21.2
		C197.6,60.1,197.1,60.7,196.5,60.7z"/>
	<path class="st0" d="M229,60.7L229,60.7c-1.4,0-2.6-1.3-2.6-2.9V57c-0.5,0.4-1.1,0.8-1.9,1.5c-0.8,0.6-1.5,1.1-2.3,1.5
		c-0.9,0.5-1.9,0.9-3,1.2c-1.1,0.3-2.4,0.5-4,0.5c-2.8,0-5.1-1-7.1-3.1c-1.9-2.1-2.9-4.7-2.9-7.9c0-2.6,0.5-4.7,1.5-6.4
		c1-1.6,2.4-2.9,4.3-3.8c1.9-0.9,4.1-1.6,6.8-1.9c2.6-0.3,5.5-0.6,8.5-0.7v-0.9c0-1.3-0.2-2.4-0.6-3.3c-0.4-0.9-1-1.5-1.8-2
		c-0.7-0.5-1.6-0.8-2.7-1c-1-0.2-2.1-0.2-3.2-0.2c-1.4,0-2.9,0.2-4.6,0.6c-1.7,0.4-3.4,1-5.2,1.8h-0.3v-3.6c0-1.4,0.9-2.6,2.1-2.8
		c0.7-0.2,1.5-0.3,2.3-0.5c1.9-0.4,3.8-0.6,5.7-0.6c2.2,0,4.1,0.2,5.7,0.6c1.6,0.4,3,1.1,4.2,2.1c1.2,1,2,2.2,2.7,3.7
		c0.6,1.5,0.9,3.4,0.9,5.6v20.6C231.6,59.4,230.5,60.7,229,60.7z M226.4,50.7v-5.1c0-1.7-1.3-3-2.8-2.9c-0.9,0.1-1.8,0.2-2.8,0.3
		c-2.1,0.2-3.8,0.5-5.1,0.9c-1.5,0.5-2.7,1.2-3.6,2.2c-0.9,1-1.4,2.4-1.4,4.1c0,2,0.5,3.5,1.6,4.5c1.1,1,2.7,1.5,4.9,1.5
		c1.8,0,3.5-0.4,5-1.2c1.1-0.6,2.1-1.2,3-1.9C226,52.6,226.4,51.7,226.4,50.7z"/>
	<path class="st0" d="M265.6,60.7h-3.1c-0.6,0-1.1-0.5-1.1-1.2v0c0-1-1-1.5-1.7-1c-1,0.8-2,1.4-3,1.9c-1.6,0.8-3.4,1.2-5.3,1.2
		c-3.7,0-6.6-1.6-8.8-4.8c-2.2-3.2-3.3-7.6-3.3-13.2c0-2.9,0.4-5.5,1.1-7.8s1.8-4.2,3-5.9c1.3-1.6,2.7-2.8,4.4-3.6
		c1.7-0.8,3.4-1.2,5.2-1.2c1.6,0,3.1,0.2,4.3,0.6c0.8,0.2,1.6,0.6,2.5,1c0.7,0.3,1.5-0.2,1.5-1.1V13.7c0-0.7,0.5-1.2,1.1-1.2h3.1
		c0.6,0,1.1,0.5,1.1,1.2v45.8C266.7,60.2,266.2,60.7,265.6,60.7z M261.5,51.6V33.1c0-0.5-0.3-0.9-0.7-1.1c-1.1-0.5-2.2-0.9-3.1-1.1
		c-1.1-0.3-2.3-0.4-3.6-0.4c-2.9,0-5.2,1.1-6.8,3.4c-1.6,2.3-2.4,5.5-2.4,9.7c0,4.1,0.6,7.2,1.9,9.4c1.3,2.1,3.3,3.2,6,3.2
		c1.5,0,3-0.4,4.5-1.1c1.3-0.7,2.6-1.5,3.8-2.5C261.3,52.3,261.5,52,261.5,51.6z"/>
	<path class="st0" d="M303.3,43.4c0,5.6-1.3,10.1-3.9,13.4c-2.6,3.3-6,4.9-10.4,4.9c-4.4,0-7.8-1.6-10.4-4.9
		c-2.6-3.3-3.9-7.7-3.9-13.4s1.3-10.1,3.9-13.4c2.6-3.3,6-4.9,10.4-4.9c4.3,0,7.8,1.6,10.4,4.9S303.3,37.8,303.3,43.4z M297.9,43.4
		c0-4.5-0.8-7.8-2.4-10c-1.6-2.2-3.7-3.3-6.5-3.3c-2.8,0-5,1.1-6.6,3.3c-1.6,2.2-2.3,5.5-2.3,10c0,4.3,0.8,7.6,2.4,9.9
		c1.6,2.2,3.8,3.4,6.6,3.4c2.8,0,4.9-1.1,6.5-3.3C297.1,51.1,297.9,47.8,297.9,43.4z"/>
	<path class="st0" d="M314,60.7L314,60.7c-1.4,0-2.6-1.3-2.6-2.9V15.4c0-1.6,1.2-2.9,2.6-2.9h0c1.4,0,2.6,1.3,2.6,2.9v42.4
		C316.6,59.4,315.4,60.7,314,60.7z"/>
</g>
<g>
	<linearGradient id="SVGID_1_" gradientUnits="userSpaceOnUse" x1="49.4444" y1="43.7315" x2="105.6262" y2="43.7315">
		<stop  offset="0" style="stop-color:#0052D4"/>
		<stop  offset="1" style="stop-color:#5F79FF"/>
	</linearGradient>
	<path class="st1" d="M54.3,70c-0.1,0.1-0.3,0.2-0.4,0.3c-4,1.7-5.9-1.4-2.9-4.6l40.6-45c0,0,14.1-15.5,14.1,14.1v22.7
		c0,3.4-1.8,4.9-3.9,2.7c-0.2-0.2-0.4-0.5-0.5-0.8l-8.4-12.2c-0.1-0.3-0.3-0.7-0.5-0.9c-1.1-1-2.7-1.3-4.1-0.7
		c-0.2,0.1-0.3,0.2-0.5,0.3L54.3,70z"/>
	<g>
		<path class="st2" d="M89.4,50.4L75.6,65.7c-3.1,3.2-1.1,6.4,2.9,4.6c0.2-0.1,0.3-0.2,0.4-0.3l13.4-8.3L89.4,50.4z"/>
		<path class="st2" d="M116.2,20.7l-6.6,7.3c0.3,2.8,0.3,5.2,0.3,6.8v13l2.5-2c0.1-0.1,0.3-0.2,0.5-0.3c1.4-0.6,3-0.3,4.1,0.7
			c0.3,0.2,0.5,0.6,0.5,0.9l8.4,12.2c0.1,0.3,0.2,0.6,0.5,0.8c2.1,2.2,3.9,0.7,3.9-2.7V34.8C130.3,5.2,116.2,20.7,116.2,20.7z"/>
	</g>
	<path class="st2" d="M54.3,70c-0.1,0.1-0.3,0.2-0.4,0.3c-4,1.7-5.9-1.4-2.9-4.6l40.6-45c0,0,14.1-15.5,14.1,14.1v22.7
		c0,3.4-1.8,4.9-3.9,2.7c-0.2-0.2-0.4-0.5-0.5-0.8l-8.4-12.2c-0.1-0.3-0.3-0.7-0.5-0.9c-1.1-1-2.7-1.3-4.1-0.7
		c-0.2,0.1-0.3,0.2-0.5,0.3L54.3,70z"/>
</g>
</svg>
